<svg id="SvgjsSvg1006" width="1288.203125" height="784" xmlns="http://www.w3.org/2000/svg" version="1.1" xmlns:xlink="http://www.w3.org/1999/xlink" xmlns:svgjs="http://svgjs.com/svgjs"><defs id="SvgjsDefs1007"><marker id="SvgjsMarker1064" markerWidth="14" markerHeight="10" refX="10" refY="5" viewBox="0 0 14 10" orient="auto" markerUnits="userSpaceOnUse" stroke-dasharray="0,0"><path id="SvgjsPath1065" d="M0,0 L14,5 L0,10 L0,0" fill="#323232" stroke="#323232" stroke-width="1"></path></marker><marker id="SvgjsMarker1068" markerWidth="14" markerHeight="10" refX="10" refY="5" viewBox="0 0 14 10" orient="auto" markerUnits="userSpaceOnUse" stroke-dasharray="0,0"><path id="SvgjsPath1069" d="M0,0 L14,5 L0,10 L0,0" fill="#323232" stroke="#323232" stroke-width="1"></path></marker><marker id="SvgjsMarker1072" markerWidth="14" markerHeight="10" refX="10" refY="5" viewBox="0 0 14 10" orient="auto" markerUnits="userSpaceOnUse" stroke-dasharray="0,0"><path id="SvgjsPath1073" d="M0,0 L14,5 L0,10 L0,0" fill="#323232" stroke="#323232" stroke-width="1"></path></marker><marker id="SvgjsMarker1076" markerWidth="14" markerHeight="10" refX="10" refY="5" viewBox="0 0 14 10" orient="auto" markerUnits="userSpaceOnUse" stroke-dasharray="0,0"><path id="SvgjsPath1077" d="M0,0 L14,5 L0,10 L0,0" fill="#323232" stroke="#323232" stroke-width="1"></path></marker><marker id="SvgjsMarker1092" markerWidth="14" markerHeight="10" refX="10" refY="5" viewBox="0 0 14 10" orient="auto" markerUnits="userSpaceOnUse" stroke-dasharray="0,0"><path id="SvgjsPath1093" d="M0,0 L14,5 L0,10 L0,0" fill="#323232" stroke="#323232" stroke-width="1"></path></marker><marker id="SvgjsMarker1100" markerWidth="14" markerHeight="10" refX="10" refY="5" viewBox="0 0 14 10" orient="auto" markerUnits="userSpaceOnUse" stroke-dasharray="0,0"><path id="SvgjsPath1101" d="M0,0 L14,5 L0,10 L0,0" fill="#323232" stroke="#323232" stroke-width="1"></path></marker><marker id="SvgjsMarker1112" markerWidth="14" markerHeight="10" refX="10" refY="5" viewBox="0 0 14 10" orient="auto" markerUnits="userSpaceOnUse" stroke-dasharray="0,0"><path id="SvgjsPath1113" d="M0,0 L14,5 L0,10 L0,0" fill="#323232" stroke="#323232" stroke-width="1"></path></marker><marker id="SvgjsMarker1116" markerWidth="14" markerHeight="10" refX="10" refY="5" viewBox="0 0 14 10" orient="auto" markerUnits="userSpaceOnUse" stroke-dasharray="0,0"><path id="SvgjsPath1117" d="M0,0 L14,5 L0,10 L0,0" fill="#323232" stroke="#323232" stroke-width="1"></path></marker><marker id="SvgjsMarker1128" markerWidth="14" markerHeight="10" refX="10" refY="5" viewBox="0 0 14 10" orient="auto" markerUnits="userSpaceOnUse" stroke-dasharray="0,0"><path id="SvgjsPath1129" d="M0,0 L14,5 L0,10 L0,0" fill="#323232" stroke="#323232" stroke-width="1"></path></marker><marker id="SvgjsMarker1150" markerWidth="14" markerHeight="10" refX="10" refY="5" viewBox="0 0 14 10" orient="auto" markerUnits="userSpaceOnUse" stroke-dasharray="0,0"><path id="SvgjsPath1151" d="M0,0 L14,5 L0,10 L0,0" fill="#323232" stroke="#323232" stroke-width="1"></path></marker><marker id="SvgjsMarker1158" markerWidth="14" markerHeight="10" refX="10" refY="5" viewBox="0 0 14 10" orient="auto" markerUnits="userSpaceOnUse" stroke-dasharray="0,0"><path id="SvgjsPath1159" d="M0,0 L14,5 L0,10 L0,0" fill="#323232" stroke="#323232" stroke-width="1"></path></marker><marker id="SvgjsMarker1170" markerWidth="14" markerHeight="10" refX="10" refY="5" viewBox="0 0 14 10" orient="auto" markerUnits="userSpaceOnUse" stroke-dasharray="0,0"><path id="SvgjsPath1171" d="M0,0 L14,5 L0,10 L0,0" fill="#323232" stroke="#323232" stroke-width="1"></path></marker><marker id="SvgjsMarker1174" markerWidth="14" markerHeight="10" refX="10" refY="5" viewBox="0 0 14 10" orient="auto" markerUnits="userSpaceOnUse" stroke-dasharray="0,0"><path id="SvgjsPath1175" d="M0,0 L14,5 L0,10 L0,0" fill="#323232" stroke="#323232" stroke-width="1"></path></marker><marker id="SvgjsMarker1190" markerWidth="14" markerHeight="10" refX="10" refY="5" viewBox="0 0 14 10" orient="auto" markerUnits="userSpaceOnUse" stroke-dasharray="0,0"><path id="SvgjsPath1191" d="M0,0 L14,5 L0,10 L0,0" fill="#323232" stroke="#323232" stroke-width="1"></path></marker><marker id="SvgjsMarker1198" markerWidth="14" markerHeight="10" refX="10" refY="5" viewBox="0 0 14 10" orient="auto" markerUnits="userSpaceOnUse" stroke-dasharray="0,0"><path id="SvgjsPath1199" d="M0,0 L14,5 L0,10 L0,0" fill="#323232" stroke="#323232" stroke-width="1"></path></marker><marker id="SvgjsMarker1214" markerWidth="14" markerHeight="10" refX="10" refY="5" viewBox="0 0 14 10" orient="auto" markerUnits="userSpaceOnUse" stroke-dasharray="0,0"><path id="SvgjsPath1215" d="M0,0 L14,5 L0,10 L0,0" fill="#323232" stroke="#323232" stroke-width="1"></path></marker><marker id="SvgjsMarker1218" markerWidth="14" markerHeight="10" refX="10" refY="5" viewBox="0 0 14 10" orient="auto" markerUnits="userSpaceOnUse" stroke-dasharray="0,0"><path id="SvgjsPath1219" d="M0,0 L14,5 L0,10 L0,0" fill="#323232" stroke="#323232" stroke-width="1"></path></marker><marker id="SvgjsMarker1234" markerWidth="14" markerHeight="10" refX="10" refY="5" viewBox="0 0 14 10" orient="auto" markerUnits="userSpaceOnUse" stroke-dasharray="0,0"><path id="SvgjsPath1235" d="M0,0 L14,5 L0,10 L0,0" fill="#323232" stroke="#323232" stroke-width="1"></path></marker><marker id="SvgjsMarker1244" markerWidth="14" markerHeight="10" refX="10" refY="5" viewBox="0 0 14 10" orient="auto" markerUnits="userSpaceOnUse" stroke-dasharray="0,0"><path id="SvgjsPath1245" d="M0,0 L14,5 L0,10 L0,0" fill="#323232" stroke="#323232" stroke-width="1"></path></marker><marker id="SvgjsMarker1262" markerWidth="14" markerHeight="10" refX="10" refY="5" viewBox="0 0 14 10" orient="auto" markerUnits="userSpaceOnUse" stroke-dasharray="0,0"><path id="SvgjsPath1263" d="M0,0 L14,5 L0,10 L0,0" fill="#323232" stroke="#323232" stroke-width="1"></path></marker><marker id="SvgjsMarker1266" markerWidth="14" markerHeight="10" refX="10" refY="5" viewBox="0 0 14 10" orient="auto" markerUnits="userSpaceOnUse" stroke-dasharray="0,0"><path id="SvgjsPath1267" d="M0,0 L14,5 L0,10 L0,0" fill="#323232" stroke="#323232" stroke-width="1"></path></marker></defs><g id="SvgjsG1008" transform="translate(170.109375,171.59062576293945)"><path id="SvgjsPath1009" d="M 0 0L 101 0L 101 101L 0 101Z" stroke="rgba(50,50,50,1)" stroke-width="2" fill-opacity="1" fill="#ffffff"></path><g id="SvgjsG1010"><text id="SvgjsText1011" font-family="微软雅黑" text-anchor="middle" font-size="13px" width="81px" fill="#323232" font-weight="400" align="middle" lineHeight="125%" anchor="middle" family="微软雅黑" size="13px" weight="400" font-style="" opacity="1" y="23.375" transform="rotate(0)"><tspan id="SvgjsTspan1012" dy="16" x="50.5"><tspan id="SvgjsTspan1013" style="text-decoration:;">OpenCV实现</tspan></tspan><tspan id="SvgjsTspan1014" dy="16" x="50.5"><tspan id="SvgjsTspan1015" style="text-decoration:;">对图像的预处</tspan></tspan><tspan id="SvgjsTspan1016" dy="16" x="50.5"><tspan id="SvgjsTspan1017" style="text-decoration:;">理模块</tspan></tspan></text></g></g><g id="SvgjsG1018" transform="translate(170.109375,337.19061279296875)"><path id="SvgjsPath1019" d="M 0 0L 101 0L 101 103.0000114440918L 0 103.0000114440918Z" stroke="rgba(50,50,50,1)" stroke-width="2" fill-opacity="1" fill="#ffffff"></path><g id="SvgjsG1020"><text id="SvgjsText1021" font-family="微软雅黑" text-anchor="middle" font-size="13px" width="81px" fill="#323232" font-weight="400" align="middle" lineHeight="125%" anchor="middle" family="微软雅黑" size="13px" weight="400" font-style="" opacity="1" y="-0.12499427795410156" transform="rotate(0)"><tspan id="SvgjsTspan1022" dy="16" x="50.5"><tspan id="SvgjsTspan1023" style="text-decoration:;">结合预处理模</tspan></tspan><tspan id="SvgjsTspan1024" dy="16" x="50.5"><tspan id="SvgjsTspan1025" style="text-decoration:;">块，利用</tspan></tspan><tspan id="SvgjsTspan1026" dy="16" x="50.5"><tspan id="SvgjsTspan1027" style="text-decoration:;">PyTorch搭建</tspan></tspan><tspan id="SvgjsTspan1028" dy="16" x="50.5"><tspan id="SvgjsTspan1029" style="text-decoration:;">神经网络，得</tspan></tspan><tspan id="SvgjsTspan1030" dy="16" x="50.5"><tspan id="SvgjsTspan1031" style="text-decoration:;">到待训练的模</tspan></tspan><tspan id="SvgjsTspan1032" dy="16" x="50.5"><tspan id="SvgjsTspan1033" style="text-decoration:;">型</tspan></tspan></text></g></g><g id="SvgjsG1034" transform="translate(325.20936584472656,490.390625)"><path id="SvgjsPath1035" d="M 0 0L 101 0L 101 70L 0 70Z" stroke="rgba(50,50,50,1)" stroke-width="2" fill-opacity="1" fill="#ffffff"></path><g id="SvgjsG1036"><text id="SvgjsText1037" font-family="微软雅黑" text-anchor="middle" font-size="13px" width="81px" fill="#323232" font-weight="400" align="middle" lineHeight="125%" anchor="middle" family="微软雅黑" size="13px" weight="400" font-style="" opacity="1" y="7.875" transform="rotate(0)"><tspan id="SvgjsTspan1038" dy="16" x="50.5"><tspan id="SvgjsTspan1039" style="text-decoration:;">实现穿戴</tspan></tspan><tspan id="SvgjsTspan1040" dy="16" x="50.5"><tspan id="SvgjsTspan1041" style="text-decoration:;">设备检测</tspan></tspan><tspan id="SvgjsTspan1042" dy="16" x="50.5"><tspan id="SvgjsTspan1043" style="text-decoration:;">模型</tspan></tspan></text></g></g><g id="SvgjsG1044" transform="translate(25.009384155273438,490.390625)"><path id="SvgjsPath1045" d="M 0 0L 101 0L 101 70L 0 70Z" stroke="rgba(50,50,50,1)" stroke-width="2" fill-opacity="1" fill="#ffffff"></path><g id="SvgjsG1046"><text id="SvgjsText1047" font-family="微软雅黑" text-anchor="middle" font-size="13px" width="81px" fill="#323232" font-weight="400" align="middle" lineHeight="125%" anchor="middle" family="微软雅黑" size="13px" weight="400" font-style="" opacity="1" y="7.875" transform="rotate(0)"><tspan id="SvgjsTspan1048" dy="16" x="50.5"><tspan id="SvgjsTspan1049" style="text-decoration:;">实现违规</tspan></tspan><tspan id="SvgjsTspan1050" dy="16" x="50.5"><tspan id="SvgjsTspan1051" style="text-decoration:;">行为检测</tspan></tspan><tspan id="SvgjsTspan1052" dy="16" x="50.5"><tspan id="SvgjsTspan1053" style="text-decoration:;">模型</tspan></tspan></text></g></g><g id="SvgjsG1054" transform="translate(325.20936584472656,147.9906234741211)"><path id="SvgjsPath1055" d="M 0 0L 101 0L 101 70L 0 70Z" stroke="rgba(50,50,50,1)" stroke-width="2" fill-opacity="1" fill="#ffffff"></path><g id="SvgjsG1056"><text id="SvgjsText1057" font-family="微软雅黑" text-anchor="middle" font-size="13px" width="81px" fill="#323232" font-weight="400" align="middle" lineHeight="125%" anchor="middle" family="微软雅黑" size="13px" weight="400" font-style="" opacity="1" y="15.875" transform="rotate(0)"><tspan id="SvgjsTspan1058" dy="16" x="50.5"><tspan id="SvgjsTspan1059" style="text-decoration:;">穿戴设备</tspan></tspan><tspan id="SvgjsTspan1060" dy="16" x="50.5"><tspan id="SvgjsTspan1061" style="text-decoration:;">数据集</tspan></tspan></text></g></g><g id="SvgjsG1062"><path id="SvgjsPath1063" d="M220.609375 273.59062576293945L220.609375 304.8906192779541L220.609375 304.8906192779541L220.609375 333.5906127929687" stroke="#323232" stroke-width="2" fill="none" marker-end="url(#SvgjsMarker1064)"></path></g><g id="SvgjsG1066"><path id="SvgjsPath1067" d="M220.609375 441.19062423706055L220.609375 465.2906246185303L375.70936584472656 465.2906246185303L375.70936584472656 486.790625" stroke="#323232" stroke-width="2" fill="none" marker-end="url(#SvgjsMarker1068)"></path></g><g id="SvgjsG1070"><path id="SvgjsPath1071" d="M220.609375 441.19062423706055L220.609375 465.2906246185303L75.50938415527344 465.2906246185303L75.50938415527344 486.790625" stroke="#323232" stroke-width="2" fill="none" marker-end="url(#SvgjsMarker1072)"></path></g><g id="SvgjsG1074"><path id="SvgjsPath1075" d="M375.70936584472656 218.9906234741211L375.70936584472656 354.19062423706055L375.70936584472656 354.19062423706055L375.70936584472656 486.790625" stroke="#323232" stroke-width="2" fill="none" marker-end="url(#SvgjsMarker1076)"></path><rect id="SvgjsRect1078" width="52" height="16" x="349.70936584472656" y="344.89062423706054" fill="#ffffff"></rect><text id="SvgjsText1079" font-family="微软雅黑" text-anchor="middle" font-size="13px" width="52px" fill="#323232" font-weight="400" align="top" lineHeight="16px" anchor="middle" family="微软雅黑" size="13px" weight="400" font-style="" opacity="1" y="342.26562423706054" transform="rotate(0)"><tspan id="SvgjsTspan1080" dy="16" x="375.70936584472656"><tspan id="SvgjsTspan1081" style="text-decoration:;">训练模型</tspan></tspan></text></g><g id="SvgjsG1082" transform="translate(25.009384155273438,147.9906234741211)"><path id="SvgjsPath1083" d="M 0 0L 101 0L 101 70L 0 70Z" stroke="rgba(50,50,50,1)" stroke-width="2" fill-opacity="1" fill="#ffffff"></path><g id="SvgjsG1084"><text id="SvgjsText1085" font-family="微软雅黑" text-anchor="middle" font-size="13px" width="81px" fill="#323232" font-weight="400" align="middle" lineHeight="125%" anchor="middle" family="微软雅黑" size="13px" weight="400" font-style="" opacity="1" y="15.875" transform="rotate(0)"><tspan id="SvgjsTspan1086" dy="16" x="50.5"><tspan id="SvgjsTspan1087" style="text-decoration:;">违规行为</tspan></tspan><tspan id="SvgjsTspan1088" dy="16" x="50.5"><tspan id="SvgjsTspan1089" style="text-decoration:;">数据集</tspan></tspan></text></g></g><g id="SvgjsG1090"><path id="SvgjsPath1091" d="M75.50938415527344 218.9906234741211L75.50938415527344 354.19062423706055L75.50938415527344 354.19062423706055L75.50938415527344 486.790625" stroke="#323232" stroke-width="2" fill="none" marker-end="url(#SvgjsMarker1092)"></path><rect id="SvgjsRect1094" width="52" height="16" x="49.50938415527344" y="344.89062423706054" fill="#ffffff"></rect><text id="SvgjsText1095" font-family="微软雅黑" text-anchor="middle" font-size="13px" width="52px" fill="#323232" font-weight="400" align="top" lineHeight="16px" anchor="middle" family="微软雅黑" size="13px" weight="400" font-style="" opacity="1" y="342.26562423706054" transform="rotate(0)"><tspan id="SvgjsTspan1096" dy="16" x="75.50938415527344"><tspan id="SvgjsTspan1097" style="text-decoration:;">训练模型</tspan></tspan></text></g><g id="SvgjsG1098"><path id="SvgjsPath1099" d="M375.70936584472656 561.390625L375.70936584472656 609.890625L227.609375 609.890625L227.609375 655.790625" stroke="#323232" stroke-width="2" fill="none" marker-end="url(#SvgjsMarker1100)"></path></g><g id="SvgjsG1102" transform="translate(902.109375,94.99063873291016)"><path id="SvgjsPath1103" d="M 0 4Q 0 0 4 0L 97 0Q 101 0 101 4L 101 66Q 101 70 97 70L 4 70Q 0 70 0 66Z" stroke="rgba(50,50,50,1)" stroke-width="2" fill-opacity="1" fill="#ffffff"></path><g id="SvgjsG1104"><text id="SvgjsText1105" font-family="微软雅黑" text-anchor="middle" font-size="13px" width="81px" fill="#323232" font-weight="400" align="middle" lineHeight="125%" anchor="middle" family="微软雅黑" size="13px" weight="400" font-style="" opacity="1" y="15.875" transform="rotate(0)"><tspan id="SvgjsTspan1106" dy="16" x="50.5"><tspan id="SvgjsTspan1107" style="text-decoration:;">向带有AI芯片</tspan></tspan><tspan id="SvgjsTspan1108" dy="16" x="50.5"><tspan id="SvgjsTspan1109" style="text-decoration:;">的开发板移植</tspan></tspan></text></g></g><g id="SvgjsG1110"><path id="SvgjsPath1111" d="M75.50938415527344 561.390625L75.50938415527344 609.890625L227.609375 609.890625L227.609375 655.790625" stroke="#323232" stroke-width="2" fill="none" marker-end="url(#SvgjsMarker1112)"></path></g><g id="SvgjsG1114"><path id="SvgjsPath1115" d="M952.609375 165.99063873291016L952.609375 186.09063720703125L853.609375 186.09063720703125L853.609375 203.99063720703126" stroke="#323232" stroke-width="2" fill="none" marker-end="url(#SvgjsMarker1116)"></path></g><g id="SvgjsG1118" transform="translate(803.109375,207.59063720703125)"><path id="SvgjsPath1119" d="M 0 4Q 0 0 4 0L 97 0Q 101 0 101 4L 101 66Q 101 70 97 70L 4 70Q 0 70 0 66Z" stroke="rgba(50,50,50,1)" stroke-width="2" fill-opacity="1" fill="#ffffff"></path><g id="SvgjsG1120"><text id="SvgjsText1121" font-family="微软雅黑" text-anchor="middle" font-size="13px" width="81px" fill="#323232" font-weight="400" align="middle" lineHeight="125%" anchor="middle" family="微软雅黑" size="13px" weight="400" font-style="" opacity="1" y="15.875" transform="rotate(0)"><tspan id="SvgjsTspan1122" dy="16" x="50.5"><tspan id="SvgjsTspan1123" style="text-decoration:;">接入摄像头采</tspan></tspan><tspan id="SvgjsTspan1124" dy="16" x="50.5"><tspan id="SvgjsTspan1125" style="text-decoration:;">集数据</tspan></tspan></text></g></g><g id="SvgjsG1126"><path id="SvgjsPath1127" d="M952.609375 165.99063873291016L952.609375 186.09063720703125L1055.609375 186.09063720703125L1055.609375 203.99063720703126" stroke="#323232" stroke-width="2" fill="none" marker-end="url(#SvgjsMarker1128)"></path></g><g id="SvgjsG1130" transform="translate(1014.109375,207.59063720703125)"><path id="SvgjsPath1131" d="M 0 4Q 0 0 4 0L 97 0Q 101 0 101 4L 101 66Q 101 70 97 70L 4 70Q 0 70 0 66Z" stroke="rgba(50,50,50,1)" stroke-width="2" fill-opacity="1" fill="#ffffff"></path><g id="SvgjsG1132"><text id="SvgjsText1133" font-family="微软雅黑" text-anchor="middle" font-size="13px" width="81px" fill="#323232" font-weight="400" align="middle" lineHeight="125%" anchor="middle" family="微软雅黑" size="13px" weight="400" font-style="" opacity="1" y="15.875" transform="rotate(0)"><tspan id="SvgjsTspan1134" dy="16" x="50.5"><tspan id="SvgjsTspan1135" style="text-decoration:;">接入报警设备</tspan></tspan><tspan id="SvgjsTspan1136" dy="16" x="50.5"><tspan id="SvgjsTspan1137" style="text-decoration:;">实现报警</tspan></tspan></text></g></g><g id="SvgjsG1138" transform="translate(177.109375,659.390625)"><path id="SvgjsPath1139" d="M 0 0L 101 0L 101 70L 0 70Z" stroke="rgba(50,50,50,1)" stroke-width="2" fill-opacity="1" fill="#ffffff"></path><g id="SvgjsG1140"><text id="SvgjsText1141" font-family="微软雅黑" text-anchor="middle" font-size="13px" width="81px" fill="#323232" font-weight="400" align="middle" lineHeight="125%" anchor="middle" family="微软雅黑" size="13px" weight="400" font-style="" opacity="1" y="7.875" transform="rotate(0)"><tspan id="SvgjsTspan1142" dy="16" x="50.5"><tspan id="SvgjsTspan1143" style="text-decoration:;">模型</tspan></tspan><tspan id="SvgjsTspan1144" dy="16" x="50.5"><tspan id="SvgjsTspan1145" style="text-decoration:;">识别与检测</tspan></tspan><tspan id="SvgjsTspan1146" dy="16" x="50.5"><tspan id="SvgjsTspan1147" style="text-decoration:;">正确率测试</tspan></tspan></text></g></g><g id="SvgjsG1148"><path id="SvgjsPath1149" d="M227.609375 730.390625L227.609375 759.390625L590.109375 759.390625L590.109375 64.99063873291016L952.609375 64.99063873291016L952.609375 91.39063873291016" stroke="#323232" stroke-width="2" fill="none" marker-end="url(#SvgjsMarker1150)"></path><rect id="SvgjsRect1152" width="65" height="16" x="557.609375" y="405.49063186645503" fill="#ffffff"></rect><text id="SvgjsText1153" font-family="微软雅黑" text-anchor="middle" font-size="13px" width="65px" fill="#323232" font-weight="400" align="top" lineHeight="16px" anchor="middle" family="微软雅黑" size="13px" weight="400" font-style="" opacity="1" y="402.86563186645503" transform="rotate(0)"><tspan id="SvgjsTspan1154" dy="16" x="590.109375"><tspan id="SvgjsTspan1155" style="text-decoration:;">正确率达标</tspan></tspan></text></g><g id="SvgjsG1156"><path id="SvgjsPath1157" d="M853.609375 278.59063720703125L853.609375 311.090633392334L952.609375 311.090633392334L952.609375 341.3906311035156" stroke="#323232" stroke-width="2" fill="none" marker-end="url(#SvgjsMarker1158)"></path></g><g id="SvgjsG1160" transform="translate(902.109375,344.9906311035156)"><path id="SvgjsPath1161" d="M 0 4Q 0 0 4 0L 97 0Q 101 0 101 4L 101 66Q 101 70 97 70L 4 70Q 0 70 0 66Z" stroke="rgba(50,50,50,1)" stroke-width="2" fill-opacity="1" fill="#ffffff"></path><g id="SvgjsG1162"><text id="SvgjsText1163" font-family="微软雅黑" text-anchor="middle" font-size="13px" width="81px" fill="#323232" font-weight="400" align="middle" lineHeight="125%" anchor="middle" family="微软雅黑" size="13px" weight="400" font-style="" opacity="1" y="15.875" transform="rotate(0)"><tspan id="SvgjsTspan1164" dy="16" x="50.5"><tspan id="SvgjsTspan1165" style="text-decoration:;">调试终端设备</tspan></tspan><tspan id="SvgjsTspan1166" dy="16" x="50.5"><tspan id="SvgjsTspan1167" style="text-decoration:;">兼容性</tspan></tspan></text></g></g><g id="SvgjsG1168"><path id="SvgjsPath1169" d="M1064.609375 278.59063720703125L1064.609375 311.090633392334L952.609375 311.090633392334L952.609375 341.3906311035156" stroke="#323232" stroke-width="2" fill="none" marker-end="url(#SvgjsMarker1170)"></path></g><g id="SvgjsG1172"><path id="SvgjsPath1173" d="M952.609375 415.9906311035156L952.609375 434.79063415527344L952.609375 434.79063415527344L952.609375 450.9906372070312" stroke="#323232" stroke-width="2" fill="none" marker-end="url(#SvgjsMarker1174)"></path></g><g id="SvgjsG1176" transform="translate(902.109375,454.59063720703125)"><path id="SvgjsPath1177" d="M 0 4Q 0 0 4 0L 97 0Q 101 0 101 4L 101 66Q 101 70 97 70L 4 70Q 0 70 0 66Z" stroke="rgba(50,50,50,1)" stroke-width="2" fill-opacity="1" fill="#ffffff"></path><g id="SvgjsG1178"><text id="SvgjsText1179" font-family="微软雅黑" text-anchor="middle" font-size="13px" width="81px" fill="#323232" font-weight="400" align="middle" lineHeight="125%" anchor="middle" family="微软雅黑" size="13px" weight="400" font-style="" opacity="1" y="-0.125" transform="rotate(0)"><tspan id="SvgjsTspan1180" dy="16" x="50.5"><tspan id="SvgjsTspan1181" style="text-decoration:;">终端设备</tspan></tspan><tspan id="SvgjsTspan1182" dy="16" x="50.5"><tspan id="SvgjsTspan1183" style="text-decoration:;">实地场景</tspan></tspan><tspan id="SvgjsTspan1184" dy="16" x="50.5"><tspan id="SvgjsTspan1185" style="text-decoration:;">识别与检测正</tspan></tspan><tspan id="SvgjsTspan1186" dy="16" x="50.5"><tspan id="SvgjsTspan1187" style="text-decoration:;">确率测试</tspan></tspan></text></g></g><g id="SvgjsG1188"><path id="SvgjsPath1189" d="M952.609375 525.5906372070312L952.609375 559.7906303405762L952.609375 559.7906303405762L952.609375 591.3906234741211" stroke="#323232" stroke-width="2" fill="none" marker-end="url(#SvgjsMarker1190)"></path><rect id="SvgjsRect1192" width="65" height="16" x="920.109375" y="550.4906303405762" fill="#ffffff"></rect><text id="SvgjsText1193" font-family="微软雅黑" text-anchor="middle" font-size="13px" width="65px" fill="#323232" font-weight="400" align="top" lineHeight="16px" anchor="middle" family="微软雅黑" size="13px" weight="400" font-style="" opacity="1" y="547.8656303405762" transform="rotate(0)"><tspan id="SvgjsTspan1194" dy="16" x="952.609375"><tspan id="SvgjsTspan1195" style="text-decoration:;">正确率达标</tspan></tspan></text></g><g id="SvgjsG1196"><path id="SvgjsPath1197" d="M279.109375 694.390625L352.1593704223633 694.390625L352.1593704223633 694.390625L422.60936584472654 694.390625" stroke="#323232" stroke-width="2" fill="none" marker-end="url(#SvgjsMarker1198)"></path><rect id="SvgjsRect1200" width="78" height="16" x="311.85937042236327" y="686.390625" fill="#ffffff"></rect><text id="SvgjsText1201" font-family="微软雅黑" text-anchor="middle" font-size="13px" width="78px" fill="#323232" font-weight="400" align="top" lineHeight="16px" anchor="middle" family="微软雅黑" size="13px" weight="400" font-style="" opacity="1" y="683.765625" transform="rotate(0)"><tspan id="SvgjsTspan1202" dy="16" x="350.85937042236327"><tspan id="SvgjsTspan1203" style="text-decoration:;">正确率未达标</tspan></tspan></text></g><g id="SvgjsG1204" transform="translate(426.20936584472656,659.390625)"><path id="SvgjsPath1205" d="M 0 0L 101 0L 101 70L 0 70Z" stroke="rgba(50,50,50,1)" stroke-width="2" fill-opacity="1" fill="#ffffff"></path><g id="SvgjsG1206"><text id="SvgjsText1207" font-family="微软雅黑" text-anchor="middle" font-size="13px" width="81px" fill="#323232" font-weight="400" align="middle" lineHeight="125%" anchor="middle" family="微软雅黑" size="13px" weight="400" font-style="" opacity="1" y="15.875" transform="rotate(0)"><tspan id="SvgjsTspan1208" dy="16" x="50.5"><tspan id="SvgjsTspan1209" style="text-decoration:;">基于数据集的</tspan></tspan><tspan id="SvgjsTspan1210" dy="16" x="50.5"><tspan id="SvgjsTspan1211" style="text-decoration:;">模型调优</tspan></tspan></text></g></g><g id="SvgjsG1212"><path id="SvgjsPath1213" d="M476.70936584472656 658.390625L476.70936584472656 629.390625L227.609375 629.390625L227.609375 655.790625" stroke="#323232" stroke-width="2" fill="none" marker-end="url(#SvgjsMarker1214)"></path></g><g id="SvgjsG1216"><path id="SvgjsPath1217" d="M1004.109375 489.59063720703125L1082.6593704223633 489.59063720703125L1082.6593704223633 489.59063720703125L1158.6093658447267 489.59063720703125" stroke="#323232" stroke-width="2" fill="none" marker-end="url(#SvgjsMarker1218)"></path><rect id="SvgjsRect1220" width="78" height="16" x="1042.3593704223633" y="481.59063720703125" fill="#ffffff"></rect><text id="SvgjsText1221" font-family="微软雅黑" text-anchor="middle" font-size="13px" width="78px" fill="#323232" font-weight="400" align="top" lineHeight="16px" anchor="middle" family="微软雅黑" size="13px" weight="400" font-style="" opacity="1" y="478.96563720703125" transform="rotate(0)"><tspan id="SvgjsTspan1222" dy="16" x="1081.3593704223633"><tspan id="SvgjsTspan1223" style="text-decoration:;">正确率未达标</tspan></tspan></text></g><g id="SvgjsG1224" transform="translate(1162.2093658447266,454.59063720703125)"><path id="SvgjsPath1225" d="M 0 4Q 0 0 4 0L 97 0Q 101 0 101 4L 101 66Q 101 70 97 70L 4 70Q 0 70 0 66Z" stroke="rgba(50,50,50,1)" stroke-width="2" fill-opacity="1" fill="#ffffff"></path><g id="SvgjsG1226"><text id="SvgjsText1227" font-family="微软雅黑" text-anchor="middle" font-size="13px" width="81px" fill="#323232" font-weight="400" align="middle" lineHeight="125%" anchor="middle" family="微软雅黑" size="13px" weight="400" font-style="" opacity="1" y="15.875" transform="rotate(0)"><tspan id="SvgjsTspan1228" dy="16" x="50.5"><tspan id="SvgjsTspan1229" style="text-decoration:;">基于实地场景</tspan></tspan><tspan id="SvgjsTspan1230" dy="16" x="50.5"><tspan id="SvgjsTspan1231" style="text-decoration:;">的模型调优</tspan></tspan></text></g></g><g id="SvgjsG1232"><path id="SvgjsPath1233" d="M1212.7093658447266 453.59063720703125L1212.7093658447266 424.59063720703125L952.609375 424.59063720703125L952.609375 450.9906372070312" stroke="#323232" stroke-width="2" fill="none" marker-end="url(#SvgjsMarker1234)"></path></g><g id="SvgjsG1236" transform="translate(1151.2093658447266,207.59063720703125)"><path id="SvgjsPath1237" d="M 0 0L 101 0L 101 70L 0 70Z" stroke="rgba(50,50,50,1)" stroke-width="2" fill-opacity="1" fill="#ffffff"></path><g id="SvgjsG1238"><text id="SvgjsText1239" font-family="微软雅黑" text-anchor="middle" font-size="13px" width="81px" fill="#323232" font-weight="400" align="middle" lineHeight="125%" anchor="middle" family="微软雅黑" size="13px" weight="400" font-style="" opacity="1" y="23.875" transform="rotate(0)"><tspan id="SvgjsTspan1240" dy="16" x="50.5"><tspan id="SvgjsTspan1241" style="text-decoration:;">移动轨道</tspan></tspan></text></g></g><g id="SvgjsG1242"><path id="SvgjsPath1243" d="M1201.7093658447266 278.59063720703125L1201.7093658447266 311.29063415527344L952.609375 311.29063415527344L952.609375 341.3906311035156" stroke="#323232" stroke-width="2" fill="none" marker-end="url(#SvgjsMarker1244)"></path></g><g id="SvgjsG1246" transform="translate(902.109375,594.9906234741211)"><path id="SvgjsPath1247" d="M 0 0L 101 0L 101 70L 0 70Z" stroke="rgba(50,50,50,1)" stroke-width="2" fill-opacity="1" fill="#ffffff"></path><g id="SvgjsG1248"><text id="SvgjsText1249" font-family="微软雅黑" text-anchor="middle" font-size="13px" width="81px" fill="#323232" font-weight="400" align="middle" lineHeight="125%" anchor="middle" family="微软雅黑" size="13px" weight="400" font-style="" opacity="1" y="23.875" transform="rotate(0)"><tspan id="SvgjsTspan1250" dy="16" x="50.5"><tspan id="SvgjsTspan1251" style="text-decoration:;">结题</tspan></tspan></text></g></g><g id="SvgjsG1252" transform="translate(162.109375,24.990638732910156)"><path id="SvgjsPath1253" d="M 0 0L 101 0L 101 70L 0 70Z" stroke="rgba(50,50,50,1)" stroke-width="2" fill-opacity="1" fill="#ffffff"></path><g id="SvgjsG1254"><text id="SvgjsText1255" font-family="微软雅黑" text-anchor="middle" font-size="13px" width="81px" fill="#323232" font-weight="400" align="middle" lineHeight="125%" anchor="middle" family="微软雅黑" size="13px" weight="400" font-style="" opacity="1" y="15.875" transform="rotate(0)"><tspan id="SvgjsTspan1256" dy="16" x="50.5"><tspan id="SvgjsTspan1257" style="text-decoration:;">场景图像</tspan></tspan><tspan id="SvgjsTspan1258" dy="16" x="50.5"><tspan id="SvgjsTspan1259" style="text-decoration:;">数据采集</tspan></tspan></text></g></g><g id="SvgjsG1260"><path id="SvgjsPath1261" d="M212.609375 95.99063873291016L212.609375 121.49063110351562L75.50938415527344 121.49063110351562L75.50938415527344 144.3906234741211" stroke="#323232" stroke-width="2" fill="none" marker-end="url(#SvgjsMarker1262)"></path></g><g id="SvgjsG1264"><path id="SvgjsPath1265" d="M212.609375 95.99063873291016L212.609375 121.49063110351562L375.70936584472656 121.49063110351562L375.70936584472656 144.3906234741211" stroke="#323232" stroke-width="2" fill="none" marker-end="url(#SvgjsMarker1266)"></path></g></svg>